<svg
   xmlns="http://wwww.w3.org/2000/svg"
   viewBox="0 0 32 32"
   height="32"
   width="32"
  >
   <path
      d="M 16,0.29296875 C 7.3425193,0.29296875 0.29296875,7.3425193 0.29296875,16 0.29296875,24.657481 7.3425193,31.707031 16,31.707031 24.657481,31.707031 31.707031,24.657481 31.707031,16 31.707031,7.3425193 24.657481,0.29296875 16,0.29296875 Z M 16,3.2929688 C 23.036162,3.2929688 28.707031,8.963838 28.707031,16 28.707031,23.036162 23.036162,28.707031 16,28.707031 8.963838,28.707031 3.2929688,23.036162 3.2929688,16 3.2929688,8.963838 8.963838,3.2929687 16,3.2929688 Z M 8.9160156,7.4160156 a 1.5,1.5 0 0 0 -1.0605468,0.4394532 1.5,1.5 0 0 0 0,2.1210937 C 9.8640673,11.984592 11.871067,13.992246 13.878906,16 11.871173,18.007648 9.863359,20.016116 7.8554688,22.023438 a 1.5,1.5 0 0 0 0,2.121093 1.5,1.5 0 0 0 2.1210937,0 C 11.984261,22.137401 13.992178,20.128831 16,18.121094 c 2.007648,2.007733 4.016116,4.015547 6.023438,6.023437 a 1.5,1.5 0 0 0 2.121093,0 1.5,1.5 0 0 0 0.002,-2.121093 C 22.139009,20.015414 20.129163,18.008148 18.121094,16 c 2.008494,-2.00858 4.016901,-4.016332 6.02539,-6.0253906 a 1.5,1.5 0 0 0 -0.002,-2.1210938 1.5,1.5 0 0 0 -1.060547,-0.4375 1.5,1.5 0 0 0 -1.060546,0.4394532 C 20.015407,9.8640673 18.007754,11.871067 16,13.878906 13.991742,11.870737 11.985295,9.8616796 9.9765625,7.8535156 a 1.5,1.5 0 0 0 -1.0605469,-0.4375 z" />
</svg>
