<svg
   xmlns="http://wwww.w3.org/2000/svg"
   viewBox="0 0 32 32"
   height="32"
   width="32"
  >
   <path
      d="m 23.739635,11.024025 q 0,1.375026 -0.408423,2.436926 -0.394809,1.048287 -1.129971,1.824291 -0.735162,0.776005 -1.769835,1.38864 -1.021058,0.612635 -2.314399,1.116357 v 3.104017 H 13.32484 v -4.587955 q 0.966602,-0.258668 1.742606,-0.530951 0.789619,-0.272282 1.647308,-0.884917 0.803232,-0.544564 1.252498,-1.266112 0.46288,-0.721548 0.46288,-1.633694 0,-1.361411 -0.884918,-1.933203 -0.871303,-0.5854073 -2.464154,-0.5854073 -0.980216,0 -2.2191,0.4220375 -1.22527,0.4220378 -2.246328,1.0891288 H 10.071067 V 6.8308791 q 0.871303,-0.367581 2.68198,-0.7623903 1.810677,-0.4084233 3.67581,-0.4084233 3.362686,0 5.336732,1.4839381 1.974046,1.4839382 1.974046,3.8800214 z m -5.241433,15.315876 h -5.500101 v -3.594125 h 5.500101 z M 16,0.29296875 C 7.3425193,0.29296875 0.29296875,7.3425193 0.29296875,16 0.29296875,24.657481 7.3425193,31.707031 16,31.707031 24.657481,31.707031 31.707031,24.657481 31.707031,16 31.707031,7.3425193 24.657481,0.29296875 16,0.29296875 Z M 16,3.2929688 C 23.036162,3.2929688 28.707031,8.963838 28.707031,16 28.707031,23.036162 23.036162,28.707031 16,28.707031 8.963838,28.707031 3.2929688,23.036162 3.2929688,16 3.2929688,8.963838 8.963838,3.2929688 16,3.2929688 Z" />
</svg>
