<svg
   xmlns="http://wwww.w3.org/2000/svg"
   viewBox="0 0 32 32"
   height="32"
   width="32"
  >
   <path
      d="m 16.011652,9.7976506 c -0.735,0 -1.336782,-0.2159064 -1.805345,-0.647719 -0.468563,-0.4410002 -0.702844,-0.9784692 -0.702844,-1.612407 0,-0.6523128 0.234281,-1.185188 0.702844,-1.5986257 0.468563,-0.4134377 1.070345,-0.6201565 1.805345,-0.6201565 0.744187,0 1.345969,0.2067188 1.805344,0.6201565 0.468563,0.4134377 0.702844,0.9463129 0.702844,1.5986257 0,0.6615003 -0.234281,1.2035631 -0.702844,1.6261883 -0.459375,0.4226251 -1.061157,0.6339377 -1.805344,0.6339377 z M 18.161528,26.142221 H 13.806651 V 12.030214 h 4.354877 z M 16,0.29296875 C 7.3425193,0.29296875 0.29296875,7.3425193 0.29296875,16 0.29296875,24.657481 7.3425193,31.707031 16,31.707031 24.657481,31.707031 31.707031,24.657481 31.707031,16 31.707031,7.3425193 24.657481,0.29296875 16,0.29296875 Z M 16,3.2929688 C 23.036162,3.2929688 28.707031,8.963838 28.707031,16 28.707031,23.036162 23.036162,28.707031 16,28.707031 8.963838,28.707031 3.2929688,23.036162 3.2929688,16 3.2929688,8.963838 8.963838,3.2929688 16,3.2929688 Z" />
</svg>
