<svg
   xmlns="http://wwww.w3.org/2000/svg"
   viewBox="0 0 32 32"
   height="32"
   width="32"
  >
   <path
      d="M 5.2205679,21.990269 H 26.779433 c 0.944979,0 1.70574,0.76076 1.70574,1.70574 v 1.590887 c 0,0.94498 -0.760761,1.70574 -1.70574,1.70574 H 5.2205679 c -0.9449799,0 -1.7057399,-0.76076 -1.7057399,-1.70574 v -1.590887 c 0,-0.94498 0.76076,-1.70574 1.7057399,-1.70574 z m -7e-7,-16.9829043 H 26.779432 c 0.94498,0 1.70574,0.7607601 1.70574,1.70574 v 1.5908871 c 0,0.9449799 -0.76076,1.7057402 -1.70574,1.7057402 H 5.2205672 c -0.9449799,0 -1.7057399,-0.7607603 -1.7057399,-1.7057402 V 6.7131047 c 0,-0.9449799 0.76076,-1.70574 1.7057399,-1.70574 z m 5e-7,8.4914513 H 26.779432 c 0.94498,0 1.70574,0.76076 1.70574,1.70574 v 1.590887 c 0,0.94498 -0.76076,1.70574 -1.70574,1.70574 H 5.2205677 c -0.9449799,0 -1.70574,-0.76076 -1.70574,-1.70574 v -1.590887 c 0,-0.94498 0.7607601,-1.70574 1.70574,-1.70574 z"/>
</svg>
