<svg
   xmlns="http://wwww.w3.org/2000/svg"
   viewBox="0 0 32 32"
   height="32"
   width="32"
  >
   <path
      d="M 12.28125,1.2832033 C 12.031231,1.2828297 11.819359,1.4671749 11.785156,1.714844 L 11.320312,5.1308596 C 10.471061,5.4969089 9.6695941,5.9595735 8.9277343,6.511719 L 5.736328,5.2070314 C 5.5051776,5.1131065 5.2401606,5.2039457 5.1152343,5.4199221 l -3.71875,6.4433589 c -0.1249576,0.215944 -0.071622,0.490955 0.125,0.644531 l 2.6816406,2.078126 C 4.1464059,15.055559 4.1000644,15.526784 4.0996093,16 c 4.552e-4,0.473216 0.046796,0.94444 0.1035156,1.414062 l -2.6816406,2.078126 c -0.1966221,0.153576 -0.2499576,0.428587 -0.125,0.644531 l 3.71875,6.443359 c 0.1249262,0.215977 0.3899432,0.306816 0.6210937,0.212891 l 3.1914063,-1.304688 c 0.7418598,0.552146 1.5433267,1.01481 2.3925777,1.38086 l 0.464844,3.416015 c 0.0342,0.247669 0.246075,0.432015 0.496094,0.431641 h 7.4375 c 0.250019,3.74e-4 0.461891,-0.183972 0.496094,-0.431641 l 0.464844,-3.416015 c 0.849251,-0.36605 1.650718,-0.828714 2.392578,-1.38086 l 3.191406,1.304688 c 0.231151,0.09393 0.496168,0.0031 0.621094,-0.212891 l 3.71875,-6.443359 c 0.124958,-0.215944 0.07162,-0.490955 -0.125,-0.644531 L 27.796875,17.414062 C 27.853595,16.94444 27.899936,16.473216 27.900391,16 c 1.61e-4,-0.473874 -0.04725,-0.945677 -0.103516,-1.416016 l 2.679687,-2.076172 c 0.197296,-0.153019 0.251482,-0.428122 0.126954,-0.644531 L 26.884766,5.4199221 C 26.75984,5.2039455 26.494823,5.1131064 26.263672,5.2070314 l -3.167969,1.296875 C 22.346257,5.9443778 21.537048,5.474687 20.677734,5.105469 L 20.214844,1.714844 C 20.180641,1.4671748 19.968769,1.2828297 19.71875,1.2832033 Z M 16,10.009732 C 19.308359,10.00967 21.99033,12.691641 21.990268,16 21.99033,19.308359 19.308359,21.99033 16,21.990268 12.69164,21.99033 10.00967,19.308359 10.009731,16 10.009669,12.69164 12.69164,10.00967 16,10.009732 Z"/>
</svg>
