<svg
   xmlns="http://wwww.w3.org/2000/svg"
   viewBox="0 0 32 32"
   height="32"
   width="32"
  >
   <path
      d="m 26.584824,20.22701 c -2.779874,-1.714111 -6.839453,-0.297079 -7.930854,2.786562 -1.217156,2.909373 0.598362,6.589195 3.672921,7.344913 3.013907,0.920012 6.495494,-1.241254 6.941231,-4.376828 0.406725,-2.231998 -0.698418,-4.641713 -2.683298,-5.754647 z m -1.540812,2.668765 c 1.612425,0.82119 1.619809,3.356525 0.05609,4.232292 -1.628525,1.115169 -4.076935,-0.455269 -3.73046,-2.4023 0.177233,-1.70859 2.199093,-2.747296 3.674372,-1.829992 z M 11.564453,16.21875 c -0.5,0.865885 -1,1.731771 -1.5,2.597656 3.270833,1.888672 6.541667,3.777344 9.8125,5.666016 0.5,-0.865885 1,-1.731771 1.5,-2.597656 -3.270833,-1.888672 -6.541667,-3.777344 -9.8125,-5.666016 z M 10.954477,11.202824 C 8.1746026,9.4887131 4.1150241,10.905746 3.0236236,13.989387 c -1.2171567,2.909373 0.5983621,6.589194 3.672921,7.344912 3.013907,0.920014 6.4954934,-1.241253 6.9412304,-4.376827 0.406726,-2.231998 -0.698418,-4.641714 -2.683298,-5.754648 z M 9.4136644,13.87159 c 1.6124246,0.82119 1.6198106,3.356524 0.056089,4.232292 C 7.8412284,19.21905 5.3928172,17.648613 5.739293,15.701582 5.9165275,13.992992 7.9383844,12.954284 9.4136644,13.87159 Z M 21.045524,2.1786397 c -2.874401,1.5503856 -3.677005,5.7746008 -1.552193,8.2616023 1.911012,2.508774 6.00559,2.7764 8.19734,0.491613 2.303708,-2.1501137 2.17279,-6.2458898 -0.319828,-8.1996955 -1.729604,-1.4682338 -4.36905,-1.7160098 -6.325319,-0.5535198 z m 1.540812,2.6687655 c 1.517384,-0.9858064 3.71674,0.275466 3.693316,2.0675721 C 26.431154,8.8829062 23.84691,10.218072 22.333969,8.9445 20.942903,7.9367164 21.054287,5.6663821 22.586336,4.8474052 Z m -2.709383,2.6701729 c -3.270833,1.888672 -6.541667,3.7773439 -9.8125,5.6660159 0.5,0.865885 1,1.731771 1.5,2.597656 3.270833,-1.888672 6.541667,-3.777344 9.8125,-5.666016 -0.5,-0.8658853 -1,-1.7317706 -1.5,-2.5976559 z M 5.4151761,11.202825 c -2.8744015,1.550385 -3.6770035,5.774601 -1.5521925,8.261601 1.911012,2.508775 6.0055904,2.776401 8.1973404,0.491614 2.303709,-2.150114 2.172791,-6.24589 -0.319827,-8.199696 C 10.010892,10.28811 7.3714456,10.040335 5.4151761,11.202825 Z m 1.5408125,2.668765 c 1.5173838,-0.985807 3.7167404,0.275466 3.6933164,2.067572 0.151502,1.967928 -2.4327425,3.303095 -3.945683,2.029523 C 5.3125568,16.960901 5.4239396,14.690568 6.9559886,13.87159 Z" />
</svg>
