<svg
   xmlns="http://wwww.w3.org/2000/svg"
   viewBox="0 0 32 32"
   height="32"
   width="32"
  >
   <path
      d="m 25.714844,4.4941406 c -1.841792,-0.025551 -2.101307,1.8748933 -2,3.2614786 0,5.1374498 0,10.2748998 0,15.4123498 0.169413,3.220448 4.630849,1.955157 4,-0.709582 0,-5.321415 0,-10.642831 0,-15.9642464 0.02178,-1.0761109 -0.923889,-2.0217822 -2,-2 z m -5.541016,8.0390624 c -1.841792,-0.02555 -2.101307,1.874893 -2,3.261479 0,2.457762 0,4.915525 0,7.373287 0.169413,3.220448 4.630849,1.955157 4,-0.709582 -0.01951,-2.757084 0.0395,-5.517596 -0.03038,-8.27248 -0.148542,-0.934768 -1.023046,-1.668701 -1.969616,-1.652704 z M 14.632813,8.5429688 c -1.841792,-0.025551 -2.101307,1.8748932 -2,3.2614792 0,3.78784 0,7.575681 0,11.363521 0.169413,3.220448 4.630847,1.955156 3.999999,-0.709582 0,-3.971806 0,-7.943612 0,-11.915418 C 16.657361,9.4703624 15.70542,8.5184209 14.632813,8.5429688 Z M 9.0898438,17.160156 c -1.8417919,-0.02555 -2.1013068,1.874893 -2.0000001,3.261479 0.065952,1.251854 -0.1892916,2.545994 0.2679492,3.746334 1.4495546,2.292477 4.1760051,0.219131 3.7320511,-1.867267 -0.04949,-1.273656 0.11658,-2.571562 -0.120615,-3.824586 -0.271343,-0.776268 -1.0570943,-1.326474 -1.8793852,-1.31596 z M 4.0625,2.0625 c -1.8417918,-0.025551 -2.1013067,1.8748933 -2,3.2614786 0,7.5378404 0,15.0756814 0,22.6135214 -0.02541,1.841675 1.874897,2.101337 3.2614786,2 7.5378404,0 15.0756814,0 22.6135214,0 3.020294,6.02e-4 2.245444,-4.540947 -0.394212,-4 -7.160263,0 -14.320525,0 -21.480788,0 0,-7.291667 0,-14.583333 0,-21.875 0.021782,-1.0761109 -0.9238891,-2.0217822 -2,-2 z"/>
</svg>
